<svg width="156" height="53" viewBox="0 0 156 53" fill="none" xmlns="http://www.w3.org/2000/svg">
<g clip-path="url(#clip0_171_249)">
<path d="M155.797 0.117188H0.0273438V52.8857H155.797V0.117188Z" fill="#FFFF6C"/>
<g clip-path="url(#clip1_171_249)">
<path d="M14.0302 27.5359V34.2317C14.0302 35.6782 14.1877 36.5766 14.5027 36.9269C14.9303 37.4242 15.5772 37.6728 16.4436 37.6728H17.3212V38.3H7.51562V37.6728H8.37636C9.34397 37.6728 10.0359 37.3564 10.4522 36.7235C10.6773 36.3732 10.7898 35.5426 10.7898 34.2317V19.3824C10.7898 17.9359 10.6379 17.0375 10.3341 16.6871C9.8953 16.1899 9.24271 15.9413 8.37636 15.9413H7.51562V15.3141H15.9035C17.9513 15.3141 19.5659 15.5288 20.7473 15.9582C21.9287 16.3764 22.9244 17.0883 23.7345 18.0941C24.5446 19.0999 24.9496 20.2921 24.9496 21.6708C24.9496 23.5468 24.3308 25.0724 23.0932 26.2477C21.8668 27.4229 20.1284 28.0106 17.8781 28.0106C17.3268 28.0106 16.7305 27.971 16.0892 27.8919C15.4479 27.8128 14.7615 27.6942 14.0302 27.5359ZM14.0302 26.5697C14.6265 26.6827 15.1553 26.7675 15.6166 26.824C16.0779 26.8805 16.4717 26.9087 16.798 26.9087C17.9682 26.9087 18.9752 26.4567 19.819 25.5527C20.6741 24.6373 21.1017 23.4564 21.1017 22.0098C21.1017 21.0154 20.8992 20.0943 20.4941 19.2468C20.0891 18.3879 19.5152 17.7494 18.7726 17.3313C18.03 16.9019 17.1862 16.6871 16.2411 16.6871C15.6673 16.6871 14.9303 16.7945 14.0302 17.0092V26.5697ZM34.984 36.0624C33.3977 37.2941 32.4018 38.0061 31.9967 38.1984C31.3893 38.4807 30.7423 38.6222 30.056 38.6222C28.9871 38.6222 28.1039 38.2549 27.4063 37.5203C26.7199 36.7857 26.3768 35.8195 26.3768 34.6216C26.3768 33.8644 26.5455 33.209 26.8831 32.6552C27.3444 31.8868 28.1432 31.1635 29.2796 30.4855C30.4273 29.8074 32.3288 28.9825 34.984 28.0106V27.4003C34.984 25.8521 34.7365 24.7898 34.2416 24.2135C33.7577 23.6372 33.0489 23.349 32.115 23.349C31.4062 23.349 30.8437 23.5411 30.4273 23.9253C29.9997 24.3096 29.7859 24.7503 29.7859 25.2475L29.8197 26.2307C29.8197 26.7505 29.6847 27.1517 29.4147 27.4342C29.1559 27.7168 28.8127 27.858 28.3851 27.858C27.9689 27.858 27.6257 27.7111 27.3556 27.4173C27.0969 27.1235 26.9675 26.7223 26.9675 26.2137C26.9675 25.2419 27.4625 24.3491 28.4527 23.5355C29.4428 22.7218 30.8324 22.315 32.6212 22.315C33.9939 22.315 35.119 22.5466 35.9968 23.01C36.6606 23.3603 37.15 23.9084 37.465 24.6542C37.6676 25.1402 37.7687 26.1346 37.7687 27.6377V32.9095C37.7687 34.3899 37.7969 35.2996 37.8531 35.6386C37.9095 35.9664 37.9994 36.1867 38.1231 36.2997C38.2582 36.4127 38.41 36.4692 38.5789 36.4692C38.7589 36.4692 38.9165 36.4297 39.0515 36.3506C39.2877 36.2037 39.7435 35.7912 40.4184 35.1132V36.0624C39.1585 37.7575 37.9545 38.605 36.8067 38.605C36.2555 38.605 35.8168 38.4129 35.4905 38.0287C35.1642 37.6445 34.9953 36.9891 34.984 36.0624ZM34.984 34.9606V29.0446C33.2851 29.7227 32.1882 30.2029 31.693 30.4855C30.8043 30.9827 30.1685 31.5025 29.7859 32.045C29.4034 32.5874 29.2121 33.1807 29.2121 33.8249C29.2121 34.6385 29.454 35.3166 29.9378 35.859C30.4215 36.3901 30.9785 36.6557 31.6087 36.6557C32.4638 36.6557 33.589 36.0907 34.984 34.9606ZM45.0692 22.315V25.8069C46.363 23.4789 47.6908 22.315 49.0521 22.315C49.6711 22.315 50.1828 22.5071 50.5879 22.8913C50.993 23.2642 51.1956 23.6993 51.1956 24.1965C51.1956 24.6373 51.0493 25.0102 50.7568 25.3153C50.4642 25.6204 50.1153 25.773 49.7102 25.773C49.3167 25.773 48.8722 25.5809 48.377 25.1967C47.8933 24.8011 47.5331 24.6034 47.297 24.6034C47.0944 24.6034 46.875 24.7164 46.6386 24.9424C46.1324 25.4057 45.6093 26.1685 45.0692 27.2308V34.6724C45.0692 35.5313 45.1761 36.1811 45.3897 36.6218C45.536 36.9269 45.7948 37.1812 46.1662 37.3846C46.5375 37.5881 47.0718 37.6897 47.7696 37.6897V38.3H39.8541V37.6897C40.6417 37.6897 41.2268 37.5654 41.6093 37.3168C41.8906 37.136 42.0874 36.8478 42.2001 36.4523C42.2563 36.2602 42.2845 35.7121 42.2845 34.808V28.7903C42.2845 26.9822 42.245 25.9086 42.1662 25.5696C42.0987 25.2193 41.9637 24.965 41.7611 24.8068C41.5699 24.6486 41.3282 24.5695 41.0355 24.5695C40.6867 24.5695 40.2929 24.6542 39.8541 24.8238L39.6854 24.2135L44.3604 22.315H45.0692ZM59.7786 36.0624C58.1921 37.2941 57.1964 38.0061 56.7913 38.1984C56.1837 38.4807 55.5368 38.6222 54.8504 38.6222C53.7814 38.6222 52.8982 38.2549 52.2007 37.5203C51.5145 36.7857 51.1711 35.8195 51.1711 34.6216C51.1711 33.8644 51.3401 33.209 51.6776 32.6552C52.1389 31.8868 52.9376 31.1635 54.0741 30.4855C55.2216 29.8074 57.1231 28.9825 59.7786 28.0106V27.4003C59.7786 25.8521 59.5311 24.7898 59.0359 24.2135C58.5522 23.6372 57.8432 23.349 56.9095 23.349C56.2007 23.349 55.638 23.5411 55.2216 23.9253C54.7942 24.3096 54.5803 24.7503 54.5803 25.2475L54.6142 26.2307C54.6142 26.7505 54.4792 27.1517 54.2091 27.4342C53.9503 27.7168 53.6072 27.858 53.1796 27.858C52.7634 27.858 52.4201 27.7111 52.15 27.4173C51.8912 27.1235 51.762 26.7223 51.762 26.2137C51.762 25.2419 52.2569 24.3491 53.2471 23.5355C54.2372 22.7218 55.6267 22.315 57.4158 22.315C58.7884 22.315 59.9136 22.5466 60.7911 23.01C61.4549 23.3603 61.9444 23.9084 62.2594 24.6542C62.4619 25.1402 62.5633 26.1346 62.5633 27.6377V32.9095C62.5633 34.3899 62.5914 35.2996 62.6476 35.6386C62.7039 35.9664 62.794 36.1867 62.9177 36.2997C63.0527 36.4127 63.2046 36.4692 63.3733 36.4692C63.5534 36.4692 63.7108 36.4297 63.8459 36.3506C64.0823 36.2037 64.5378 35.7912 65.213 35.1132V36.0624C63.9528 37.7575 62.7488 38.605 61.6013 38.605C61.0498 38.605 60.6111 38.4129 60.2848 38.0287C59.9585 37.6445 59.7899 36.9891 59.7786 36.0624ZM59.7786 34.9606V29.0446C58.0796 29.7227 56.9826 30.2029 56.4876 30.4855C55.5986 30.9827 54.9628 31.5025 54.5803 32.045C54.1978 32.5874 54.0066 33.1807 54.0066 33.8249C54.0066 34.6385 54.2485 35.3166 54.7322 35.859C55.2161 36.3901 55.773 36.6557 56.403 36.6557C57.2581 36.6557 58.3833 36.0907 59.7786 34.9606ZM78.4709 32.401C78.0545 34.4464 77.2388 36.0229 76.0238 37.1304C74.8085 38.2266 73.4639 38.7747 71.9901 38.7747C70.235 38.7747 68.7047 38.0345 67.3995 36.554C66.0944 35.0736 65.4418 33.0734 65.4418 30.5533C65.4418 28.1123 66.1619 26.129 67.6021 24.6034C69.0535 23.0778 70.7919 22.315 72.8171 22.315C74.3361 22.315 75.585 22.7218 76.5639 23.5355C77.5428 24.3378 78.0322 25.1741 78.0322 26.0442C78.0322 26.4737 77.8914 26.824 77.6103 27.0952C77.3402 27.3551 76.9577 27.4851 76.4625 27.4851C75.7986 27.4851 75.2979 27.2704 74.9606 26.8409C74.7693 26.6036 74.6398 26.1516 74.5723 25.4848C74.5161 24.8181 74.291 24.3096 73.8971 23.9592C73.5033 23.6202 72.9577 23.4507 72.2602 23.4507C71.135 23.4507 70.2292 23.8688 69.543 24.7051C68.6316 25.8126 68.1758 27.276 68.1758 29.0955C68.1758 30.9488 68.6259 32.5874 69.5262 34.0113C70.4375 35.4239 71.6638 36.1302 73.2052 36.1302C74.308 36.1302 75.2979 35.7517 76.1756 34.9945C76.7946 34.4747 77.3964 33.531 77.9815 32.1636L78.4709 32.401ZM84.2017 14.1953V25.5527C85.4506 24.1739 86.4407 23.2925 87.1721 22.9083C87.9035 22.5127 88.6347 22.315 89.366 22.315C90.2437 22.315 90.9975 22.5579 91.6277 23.0439C92.2577 23.5298 92.7245 24.2926 93.0285 25.3323C93.2421 26.0555 93.349 27.3777 93.349 29.2989V34.7911C93.349 35.7742 93.4278 36.4467 93.5854 36.8083C93.6979 37.0795 93.8891 37.2941 94.1592 37.4525C94.4292 37.6105 94.9242 37.6897 95.6443 37.6897V38.3H88.0496V37.6897H88.404C89.1241 37.6897 89.6248 37.5823 89.9062 37.3677C90.1875 37.1417 90.3843 36.8139 90.4967 36.3845C90.5306 36.2037 90.5474 35.6726 90.5474 34.7911V29.2989C90.5474 27.6038 90.4576 26.4906 90.2774 25.9595C90.1087 25.4283 89.8331 25.0328 89.4504 24.7729C89.0679 24.5017 88.6065 24.3661 88.0667 24.3661C87.5152 24.3661 86.9415 24.513 86.3451 24.8068C85.7488 25.1006 85.0342 25.6939 84.2017 26.5867V34.7911C84.2017 35.8534 84.2579 36.5145 84.3706 36.7744C84.4943 37.0343 84.7137 37.2547 85.0287 37.4356C85.355 37.605 85.9119 37.6897 86.6995 37.6897V38.3H79.0373V37.6897C79.7235 37.6897 80.2637 37.5823 80.6575 37.3677C80.8826 37.2547 81.0626 37.04 81.1976 36.7235C81.3326 36.4071 81.4001 35.763 81.4001 34.7911V20.7385C81.4001 18.9643 81.3552 17.8737 81.2651 17.4669C81.1863 17.0601 81.057 16.7832 80.8768 16.6363C80.7082 16.4894 80.4775 16.4159 80.1848 16.4159C79.9487 16.4159 79.5661 16.5063 79.0373 16.6871L78.8011 16.0939L83.4254 14.1953H84.2017ZM109.459 22.7727V32.1806C109.459 33.9774 109.499 35.0793 109.577 35.4861C109.667 35.8816 109.803 36.1585 109.982 36.3167C110.174 36.4749 110.393 36.554 110.641 36.554C110.989 36.554 111.383 36.458 111.822 36.2658L112.058 36.8591L107.434 38.7747H106.674V35.4861C105.347 36.9326 104.334 37.8422 103.637 38.2153C102.939 38.5881 102.202 38.7747 101.426 38.7747C100.559 38.7747 99.8056 38.5261 99.1643 38.0287C98.5341 37.5203 98.0954 36.8704 97.8479 36.0794C97.6004 35.2883 97.4764 34.1695 97.4764 32.723V25.79C97.4764 25.0554 97.3979 24.5469 97.2402 24.2644C97.0826 23.9818 96.8464 23.7671 96.5314 23.6202C96.2277 23.462 95.6708 23.3885 94.8606 23.3998V22.7727H100.278V33.1638C100.278 34.6103 100.526 35.5595 101.021 36.0116C101.527 36.4636 102.135 36.6896 102.843 36.6896C103.327 36.6896 103.873 36.5371 104.481 36.2319C105.099 35.9268 105.831 35.3448 106.674 34.486V25.6883C106.674 24.8068 106.511 24.2135 106.185 23.9084C105.87 23.592 105.206 23.4224 104.194 23.3998V22.7727H109.459ZM116.641 17.6703V22.7727H120.253V23.9592H116.641V34.0283C116.641 35.0341 116.782 35.7121 117.063 36.0624C117.356 36.4128 117.727 36.5879 118.177 36.5879C118.549 36.5879 118.909 36.4749 119.257 36.2489C119.606 36.0116 119.876 35.6669 120.068 35.2149H120.726C120.332 36.3223 119.775 37.1586 119.055 37.7237C118.335 38.2773 117.592 38.5543 116.827 38.5543C116.31 38.5543 115.803 38.4129 115.308 38.1306C114.813 37.8366 114.447 37.4242 114.211 36.893C113.975 36.3506 113.857 35.52 113.857 34.4012V23.9592H111.41V23.3998C112.028 23.1512 112.658 22.7331 113.3 22.1454C113.952 21.5465 114.532 20.8402 115.038 20.0265C115.297 19.5971 115.657 18.8117 116.118 17.6703H116.641ZM123.334 28.6208C123.323 30.9262 123.88 32.7343 125.005 34.0452C126.13 35.3561 127.452 36.0116 128.971 36.0116C129.984 36.0116 130.861 35.7347 131.604 35.181C132.358 34.6159 132.988 33.6553 133.494 32.2993L134.018 32.6383C133.781 34.1865 133.095 35.5991 131.958 36.8761C130.822 38.1417 129.399 38.7747 127.689 38.7747C125.832 38.7747 124.24 38.0514 122.912 36.6049C121.596 35.1471 120.938 33.192 120.938 30.7397C120.938 28.084 121.613 26.016 122.963 24.5356C124.324 23.0439 126.029 22.298 128.077 22.298C129.809 22.298 131.233 22.8744 132.347 24.027C133.461 25.1684 134.018 26.6997 134.018 28.6208H123.334ZM123.334 27.6377H130.49C130.434 26.6432 130.316 25.9425 130.136 25.5357C129.854 24.9029 129.432 24.4056 128.87 24.044C128.319 23.6824 127.739 23.5016 127.132 23.5016C126.198 23.5016 125.359 23.8688 124.617 24.6034C123.886 25.3266 123.458 26.3381 123.334 27.6377Z" fill="black"/>
</g>
<g clip-path="url(#clip2_171_249)">
<path d="M137.946 11.1343C138.177 11.1343 138.366 11.219 138.513 11.3885C138.68 11.5367 138.764 11.7273 138.764 11.9603C138.764 12.1721 138.68 12.3627 138.513 12.5321C138.366 12.7015 138.177 12.7863 137.946 12.7863C137.736 12.7863 137.548 12.7015 137.38 12.5321C137.212 12.3627 137.128 12.1721 137.128 11.9603C137.128 11.7273 137.212 11.5367 137.38 11.3885C137.548 11.219 137.736 11.1343 137.946 11.1343ZM143.233 11.1343C143.464 11.1343 143.652 11.219 143.799 11.3885C143.967 11.5367 144.051 11.7273 144.051 11.9603C144.051 12.1721 143.967 12.3627 143.799 12.5321C143.652 12.7015 143.464 12.7863 143.233 12.7863C143.023 12.7863 142.834 12.7015 142.666 12.5321C142.499 12.3627 142.415 12.1721 142.415 11.9603C142.415 11.7273 142.499 11.5367 142.666 11.3885C142.834 11.219 143.023 11.1343 143.233 11.1343ZM137.946 24.1592C138.177 24.1592 138.366 24.2439 138.513 24.4133C138.68 24.5616 138.764 24.7522 138.764 24.9852C138.764 25.197 138.68 25.3876 138.513 25.557C138.366 25.7264 138.177 25.8111 137.946 25.8111C137.736 25.8111 137.548 25.7264 137.38 25.557C137.212 25.3876 137.128 25.197 137.128 24.9852C137.128 24.7522 137.212 24.5616 137.38 24.4133C137.548 24.2439 137.736 24.1592 137.946 24.1592ZM143.233 24.1592C143.464 24.1592 143.652 24.2439 143.799 24.4133C143.967 24.5616 144.051 24.7522 144.051 24.9852C144.051 25.197 143.967 25.3876 143.799 25.557C143.652 25.7264 143.464 25.8111 143.233 25.8111C143.023 25.8111 142.834 25.7264 142.666 25.557C142.499 25.3876 142.415 25.197 142.415 24.9852C142.415 24.7522 142.499 24.5616 142.666 24.4133C142.834 24.2439 143.023 24.1592 143.233 24.1592ZM140.589 10.5625C140.82 10.5625 141.009 10.6472 141.156 10.8166C141.324 10.9649 141.408 11.1555 141.408 11.3885C141.408 11.6003 141.324 11.7909 141.156 11.9603C141.009 12.1297 140.82 12.2144 140.589 12.2144C140.38 12.2144 140.191 12.1297 140.023 11.9603C139.855 11.7909 139.771 11.6003 139.771 11.3885C139.771 11.1555 139.855 10.9649 140.023 10.8166C140.191 10.6472 140.38 10.5625 140.589 10.5625ZM140.589 24.731C140.82 24.731 141.009 24.8157 141.156 24.9852C141.324 25.1334 141.408 25.324 141.408 25.557C141.408 25.7688 141.324 25.9594 141.156 26.1288C141.009 26.2982 140.82 26.383 140.589 26.383C140.38 26.383 140.191 26.2982 140.023 26.1288C139.855 25.9594 139.771 25.7688 139.771 25.557C139.771 25.324 139.855 25.1334 140.023 24.9852C140.191 24.8157 140.38 24.731 140.589 24.731ZM132.754 18.4727C132.754 18.2398 132.838 18.0491 133.006 17.9009C133.173 17.7315 133.362 17.6468 133.572 17.6468C133.803 17.6468 133.992 17.7315 134.139 17.9009C134.306 18.0491 134.39 18.2398 134.39 18.4727C134.39 18.6845 134.306 18.8751 134.139 19.0446C133.992 19.214 133.803 19.2987 133.572 19.2987C133.362 19.2987 133.173 19.214 133.006 19.0446C132.838 18.8751 132.754 18.6845 132.754 18.4727ZM146.789 18.4727C146.789 18.2398 146.873 18.0491 147.04 17.9009C147.208 17.7315 147.397 17.6468 147.607 17.6468C147.838 17.6468 148.026 17.7315 148.173 17.9009C148.341 18.0491 148.425 18.2398 148.425 18.4727C148.425 18.6845 148.341 18.8751 148.173 19.0446C148.026 19.214 147.838 19.2987 147.607 19.2987C147.397 19.2987 147.208 19.214 147.04 19.0446C146.873 18.8751 146.789 18.6845 146.789 18.4727ZM134.799 23.4921C134.799 23.2591 134.883 23.0685 135.051 22.9202C135.219 22.7508 135.408 22.6661 135.618 22.6661C135.848 22.6661 136.037 22.7508 136.184 22.9202C136.352 23.0685 136.436 23.2591 136.436 23.4921C136.436 23.7039 136.352 23.8945 136.184 24.0639C136.037 24.2333 135.848 24.3181 135.618 24.3181C135.408 24.3181 135.219 24.2333 135.051 24.0639C134.883 23.8945 134.799 23.7039 134.799 23.4921ZM134.799 13.4534C134.799 13.2204 134.883 13.0298 135.051 12.8816C135.219 12.7121 135.408 12.6274 135.618 12.6274C135.848 12.6274 136.037 12.7121 136.184 12.8816C136.352 13.0298 136.436 13.2204 136.436 13.4534C136.436 13.6652 136.352 13.8558 136.184 14.0252C136.037 14.1946 135.848 14.2794 135.618 14.2794C135.408 14.2794 135.219 14.1946 135.051 14.0252C134.883 13.8558 134.799 13.6652 134.799 13.4534ZM144.743 23.4921C144.743 23.2591 144.827 23.0685 144.995 22.9202C145.163 22.7508 145.352 22.6661 145.561 22.6661C145.792 22.6661 145.981 22.7508 146.128 22.9202C146.296 23.0685 146.38 23.2591 146.38 23.4921C146.38 23.7039 146.296 23.8945 146.128 24.0639C145.981 24.2333 145.792 24.3181 145.561 24.3181C145.352 24.3181 145.163 24.2333 144.995 24.0639C144.827 23.8945 144.743 23.7039 144.743 23.4921ZM144.743 13.4534C144.743 13.2204 144.827 13.0298 144.995 12.8816C145.163 12.7121 145.352 12.6274 145.561 12.6274C145.792 12.6274 145.981 12.7121 146.128 12.8816C146.296 13.0298 146.38 13.2204 146.38 13.4534C146.38 13.6652 146.296 13.8558 146.128 14.0252C145.981 14.1946 145.792 14.2794 145.561 14.2794C145.352 14.2794 145.163 14.1946 144.995 14.0252C144.827 13.8558 144.743 13.6652 144.743 13.4534ZM133.32 21.1412C133.32 20.9083 133.404 20.7177 133.572 20.5694C133.74 20.4 133.929 20.3153 134.139 20.3153C134.369 20.3153 134.558 20.4 134.705 20.5694C134.873 20.7177 134.957 20.9083 134.957 21.1412C134.957 21.353 134.873 21.5436 134.705 21.7131C134.558 21.8825 134.369 21.9672 134.139 21.9672C133.929 21.9672 133.74 21.8825 133.572 21.7131C133.404 21.5436 133.32 21.353 133.32 21.1412ZM133.32 15.8042C133.32 15.5712 133.404 15.3807 133.572 15.2324C133.74 15.063 133.929 14.9782 134.139 14.9782C134.369 14.9782 134.558 15.063 134.705 15.2324C134.873 15.3807 134.957 15.5712 134.957 15.8042C134.957 16.016 134.873 16.2066 134.705 16.376C134.558 16.5455 134.369 16.6302 134.139 16.6302C133.929 16.6302 133.74 16.5455 133.572 16.376C133.404 16.2066 133.32 16.016 133.32 15.8042ZM146.222 21.1412C146.222 20.9083 146.306 20.7177 146.474 20.5694C146.642 20.4 146.831 20.3153 147.04 20.3153C147.271 20.3153 147.46 20.4 147.607 20.5694C147.775 20.7177 147.859 20.9083 147.859 21.1412C147.859 21.353 147.775 21.5436 147.607 21.7131C147.46 21.8825 147.271 21.9672 147.04 21.9672C146.831 21.9672 146.642 21.8825 146.474 21.7131C146.306 21.5436 146.222 21.353 146.222 21.1412ZM146.222 15.8042C146.222 15.5712 146.306 15.3807 146.474 15.2324C146.642 15.063 146.831 14.9782 147.04 14.9782C147.271 14.9782 147.46 15.063 147.607 15.2324C147.775 15.3807 147.859 15.5712 147.859 15.8042C147.859 16.016 147.775 16.2066 147.607 16.376C147.46 16.5455 147.271 16.6302 147.04 16.6302C146.831 16.6302 146.642 16.5455 146.474 16.376C146.306 16.2066 146.222 16.016 146.222 15.8042Z" fill="black"/>
</g>
</g>
<defs>
<clipPath id="clip0_171_249">
<rect width="156" height="53" fill="white"/>
</clipPath>
<clipPath id="clip1_171_249">
<rect width="126.736" height="24.7642" fill="white" transform="translate(7.375 14.1172)"/>
</clipPath>
<clipPath id="clip2_171_249">
<rect width="15.8996" height="15.9694" fill="white" transform="translate(132.727 10.5312)"/>
</clipPath>
</defs>
</svg>
